<mxfile host="app.diagrams.net" agent="Mozilla/5.0 (Windows NT 10.0; Win64; x64) AppleWebKit/537.36 (KHTML, like Gecko) Chrome/133.0.0.0 Safari/537.36" version="26.0.14">
  <diagram name="Page-1" id="ssag4NmBSyQLmJyS36MA">
    <mxGraphModel dx="1900" dy="1622" grid="1" gridSize="10" guides="1" tooltips="1" connect="1" arrows="1" fold="1" page="1" pageScale="1" pageWidth="850" pageHeight="1100" math="0" shadow="0">
      <root>
        <mxCell id="0" />
        <mxCell id="1" parent="0" />
        <mxCell id="5219BZIFk_SN9WuJHqC1-1" value="" style="endArrow=classic;html=1;rounded=0;" parent="1" edge="1">
          <mxGeometry width="50" height="50" relative="1" as="geometry">
            <mxPoint x="20" y="200" as="sourcePoint" />
            <mxPoint x="90" y="200" as="targetPoint" />
          </mxGeometry>
        </mxCell>
        <mxCell id="5219BZIFk_SN9WuJHqC1-2" value="" style="endArrow=classic;html=1;rounded=0;" parent="1" edge="1">
          <mxGeometry width="50" height="50" relative="1" as="geometry">
            <mxPoint x="30" y="240" as="sourcePoint" />
            <mxPoint x="100" y="240" as="targetPoint" />
            <Array as="points" />
          </mxGeometry>
        </mxCell>
        <mxCell id="5219BZIFk_SN9WuJHqC1-3" value="" style="endArrow=classic;html=1;rounded=0;" parent="1" edge="1">
          <mxGeometry width="50" height="50" relative="1" as="geometry">
            <mxPoint x="-40" y="90" as="sourcePoint" />
            <mxPoint x="30" y="90" as="targetPoint" />
            <Array as="points">
              <mxPoint y="90" />
            </Array>
          </mxGeometry>
        </mxCell>
        <mxCell id="5219BZIFk_SN9WuJHqC1-4" value="" style="endArrow=classic;html=1;rounded=0;" parent="1" edge="1">
          <mxGeometry width="50" height="50" relative="1" as="geometry">
            <mxPoint x="-30" y="130" as="sourcePoint" />
            <mxPoint x="40" y="130" as="targetPoint" />
            <Array as="points">
              <mxPoint y="130" />
            </Array>
          </mxGeometry>
        </mxCell>
        <mxCell id="5219BZIFk_SN9WuJHqC1-5" value="" style="triangle;whiteSpace=wrap;html=1;" parent="1" vertex="1">
          <mxGeometry x="170" y="60" width="40" height="40" as="geometry" />
        </mxCell>
        <mxCell id="5219BZIFk_SN9WuJHqC1-6" value="" style="ellipse;whiteSpace=wrap;html=1;aspect=fixed;" parent="1" vertex="1">
          <mxGeometry x="210" y="70" width="20" height="20" as="geometry" />
        </mxCell>
        <mxCell id="5219BZIFk_SN9WuJHqC1-7" value="" style="triangle;whiteSpace=wrap;html=1;" parent="1" vertex="1">
          <mxGeometry x="170" y="100" width="40" height="40" as="geometry" />
        </mxCell>
        <mxCell id="5219BZIFk_SN9WuJHqC1-21" value="" style="edgeStyle=orthogonalEdgeStyle;rounded=0;orthogonalLoop=1;jettySize=auto;html=1;entryX=0;entryY=0.75;entryDx=0;entryDy=0;entryPerimeter=0;" parent="1" source="5219BZIFk_SN9WuJHqC1-8" target="5219BZIFk_SN9WuJHqC1-17" edge="1">
          <mxGeometry relative="1" as="geometry">
            <mxPoint x="300" y="120" as="targetPoint" />
          </mxGeometry>
        </mxCell>
        <mxCell id="5219BZIFk_SN9WuJHqC1-8" value="" style="ellipse;whiteSpace=wrap;html=1;aspect=fixed;" parent="1" vertex="1">
          <mxGeometry x="200" y="110" width="20" height="20" as="geometry" />
        </mxCell>
        <mxCell id="5219BZIFk_SN9WuJHqC1-9" value="" style="triangle;whiteSpace=wrap;html=1;" parent="1" vertex="1">
          <mxGeometry y="330" width="40" height="40" as="geometry" />
        </mxCell>
        <mxCell id="5219BZIFk_SN9WuJHqC1-11" value="" style="endArrow=none;html=1;rounded=0;" parent="1" edge="1">
          <mxGeometry width="50" height="50" relative="1" as="geometry">
            <mxPoint x="90" y="200" as="sourcePoint" />
            <mxPoint x="90" y="80" as="targetPoint" />
            <Array as="points" />
          </mxGeometry>
        </mxCell>
        <mxCell id="5219BZIFk_SN9WuJHqC1-12" value="" style="endArrow=classic;html=1;rounded=0;" parent="1" edge="1">
          <mxGeometry width="50" height="50" relative="1" as="geometry">
            <mxPoint x="90" y="80" as="sourcePoint" />
            <mxPoint x="170" y="80" as="targetPoint" />
          </mxGeometry>
        </mxCell>
        <mxCell id="5219BZIFk_SN9WuJHqC1-14" value="" style="endArrow=classic;html=1;rounded=0;entryX=0;entryY=0.5;entryDx=0;entryDy=0;" parent="1" target="5219BZIFk_SN9WuJHqC1-7" edge="1">
          <mxGeometry width="50" height="50" relative="1" as="geometry">
            <mxPoint x="110" y="120" as="sourcePoint" />
            <mxPoint x="190" y="130" as="targetPoint" />
            <Array as="points">
              <mxPoint x="130" y="120" />
            </Array>
          </mxGeometry>
        </mxCell>
        <mxCell id="5219BZIFk_SN9WuJHqC1-15" value="" style="endArrow=none;html=1;rounded=0;" parent="1" edge="1">
          <mxGeometry width="50" height="50" relative="1" as="geometry">
            <mxPoint x="110" y="240" as="sourcePoint" />
            <mxPoint x="110" y="120" as="targetPoint" />
          </mxGeometry>
        </mxCell>
        <mxCell id="5219BZIFk_SN9WuJHqC1-16" value="" style="endArrow=none;html=1;rounded=0;" parent="1" edge="1">
          <mxGeometry width="50" height="50" relative="1" as="geometry">
            <mxPoint x="90" y="240" as="sourcePoint" />
            <mxPoint x="110" y="240" as="targetPoint" />
          </mxGeometry>
        </mxCell>
        <mxCell id="5219BZIFk_SN9WuJHqC1-17" value="" style="shape=or;whiteSpace=wrap;html=1;" parent="1" vertex="1">
          <mxGeometry x="350" y="60" width="60" height="80" as="geometry" />
        </mxCell>
        <mxCell id="5219BZIFk_SN9WuJHqC1-18" value="" style="endArrow=classic;html=1;rounded=0;exitX=1;exitY=0.5;exitDx=0;exitDy=0;" parent="1" source="5219BZIFk_SN9WuJHqC1-6" edge="1">
          <mxGeometry width="50" height="50" relative="1" as="geometry">
            <mxPoint x="300" y="130" as="sourcePoint" />
            <mxPoint x="350" y="80" as="targetPoint" />
          </mxGeometry>
        </mxCell>
        <mxCell id="5219BZIFk_SN9WuJHqC1-23" value="" style="shape=or;whiteSpace=wrap;html=1;" parent="1" vertex="1">
          <mxGeometry x="350" y="170" width="60" height="80" as="geometry" />
        </mxCell>
        <mxCell id="5219BZIFk_SN9WuJHqC1-24" value="" style="endArrow=none;html=1;rounded=0;" parent="1" edge="1">
          <mxGeometry width="50" height="50" relative="1" as="geometry">
            <mxPoint x="40" y="130" as="sourcePoint" />
            <mxPoint x="40" y="190" as="targetPoint" />
          </mxGeometry>
        </mxCell>
        <mxCell id="5219BZIFk_SN9WuJHqC1-25" value="" style="endArrow=none;html=1;rounded=0;" parent="1" edge="1">
          <mxGeometry width="50" height="50" relative="1" as="geometry">
            <mxPoint x="40" y="190" as="sourcePoint" />
            <mxPoint x="200" y="190" as="targetPoint" />
          </mxGeometry>
        </mxCell>
        <mxCell id="5219BZIFk_SN9WuJHqC1-26" value="" style="endArrow=none;html=1;rounded=0;" parent="1" edge="1">
          <mxGeometry width="50" height="50" relative="1" as="geometry">
            <mxPoint x="200" y="190" as="sourcePoint" />
            <mxPoint x="200" y="190" as="targetPoint" />
          </mxGeometry>
        </mxCell>
        <mxCell id="5219BZIFk_SN9WuJHqC1-27" value="" style="endArrow=classic;html=1;rounded=0;entryX=0;entryY=0.25;entryDx=0;entryDy=0;entryPerimeter=0;" parent="1" target="5219BZIFk_SN9WuJHqC1-23" edge="1">
          <mxGeometry width="50" height="50" relative="1" as="geometry">
            <mxPoint x="200" y="190" as="sourcePoint" />
            <mxPoint x="250" y="160" as="targetPoint" />
          </mxGeometry>
        </mxCell>
        <mxCell id="5219BZIFk_SN9WuJHqC1-28" value="" style="endArrow=none;html=1;rounded=0;" parent="1" edge="1">
          <mxGeometry width="50" height="50" relative="1" as="geometry">
            <mxPoint x="230" y="230" as="sourcePoint" />
            <mxPoint x="230" y="120" as="targetPoint" />
          </mxGeometry>
        </mxCell>
        <mxCell id="5219BZIFk_SN9WuJHqC1-29" value="" style="endArrow=classic;html=1;rounded=0;entryX=0;entryY=0.75;entryDx=0;entryDy=0;entryPerimeter=0;" parent="1" target="5219BZIFk_SN9WuJHqC1-23" edge="1">
          <mxGeometry width="50" height="50" relative="1" as="geometry">
            <mxPoint x="230" y="230" as="sourcePoint" />
            <mxPoint x="280" y="200" as="targetPoint" />
          </mxGeometry>
        </mxCell>
        <mxCell id="5219BZIFk_SN9WuJHqC1-30" value="" style="shape=or;whiteSpace=wrap;html=1;" parent="1" vertex="1">
          <mxGeometry x="350" y="-40" width="60" height="80" as="geometry" />
        </mxCell>
        <mxCell id="5219BZIFk_SN9WuJHqC1-31" value="" style="endArrow=classic;html=1;rounded=0;entryX=0;entryY=0.25;entryDx=0;entryDy=0;entryPerimeter=0;" parent="1" target="5219BZIFk_SN9WuJHqC1-30" edge="1">
          <mxGeometry width="50" height="50" relative="1" as="geometry">
            <mxPoint x="30" y="-20" as="sourcePoint" />
            <mxPoint x="80" y="-70" as="targetPoint" />
          </mxGeometry>
        </mxCell>
        <mxCell id="5219BZIFk_SN9WuJHqC1-32" value="" style="endArrow=none;html=1;rounded=0;" parent="1" edge="1">
          <mxGeometry width="50" height="50" relative="1" as="geometry">
            <mxPoint x="40" y="130" as="sourcePoint" />
            <mxPoint x="40" y="10" as="targetPoint" />
          </mxGeometry>
        </mxCell>
        <mxCell id="5219BZIFk_SN9WuJHqC1-33" value="" style="endArrow=classic;html=1;rounded=0;entryX=-0.02;entryY=0.635;entryDx=0;entryDy=0;entryPerimeter=0;" parent="1" target="5219BZIFk_SN9WuJHqC1-30" edge="1">
          <mxGeometry width="50" height="50" relative="1" as="geometry">
            <mxPoint x="40" y="10" as="sourcePoint" />
            <mxPoint x="90" y="-40" as="targetPoint" />
          </mxGeometry>
        </mxCell>
        <mxCell id="5219BZIFk_SN9WuJHqC1-34" value="" style="endArrow=none;html=1;rounded=0;" parent="1" edge="1">
          <mxGeometry width="50" height="50" relative="1" as="geometry">
            <mxPoint x="30" y="90" as="sourcePoint" />
            <mxPoint x="30" y="-20" as="targetPoint" />
          </mxGeometry>
        </mxCell>
        <mxCell id="5219BZIFk_SN9WuJHqC1-35" value="" style="shape=or;whiteSpace=wrap;html=1;" parent="1" vertex="1">
          <mxGeometry x="350" y="260" width="60" height="80" as="geometry" />
        </mxCell>
        <mxCell id="5219BZIFk_SN9WuJHqC1-36" value="" style="endArrow=none;html=1;rounded=0;" parent="1" edge="1">
          <mxGeometry width="50" height="50" relative="1" as="geometry">
            <mxPoint x="190" y="290" as="sourcePoint" />
            <mxPoint x="190" y="190" as="targetPoint" />
          </mxGeometry>
        </mxCell>
        <mxCell id="5219BZIFk_SN9WuJHqC1-37" value="" style="endArrow=classic;html=1;rounded=0;entryX=-0.06;entryY=0.405;entryDx=0;entryDy=0;entryPerimeter=0;" parent="1" target="5219BZIFk_SN9WuJHqC1-35" edge="1">
          <mxGeometry width="50" height="50" relative="1" as="geometry">
            <mxPoint x="190" y="292" as="sourcePoint" />
            <mxPoint x="245" y="250" as="targetPoint" />
          </mxGeometry>
        </mxCell>
        <mxCell id="5219BZIFk_SN9WuJHqC1-38" value="" style="endArrow=none;html=1;rounded=0;" parent="1" edge="1">
          <mxGeometry width="50" height="50" relative="1" as="geometry">
            <mxPoint x="90" y="320" as="sourcePoint" />
            <mxPoint x="90" y="200" as="targetPoint" />
          </mxGeometry>
        </mxCell>
        <mxCell id="5219BZIFk_SN9WuJHqC1-39" value="" style="endArrow=classic;html=1;rounded=0;entryX=0;entryY=0.75;entryDx=0;entryDy=0;entryPerimeter=0;" parent="1" target="5219BZIFk_SN9WuJHqC1-35" edge="1">
          <mxGeometry width="50" height="50" relative="1" as="geometry">
            <mxPoint x="90" y="320" as="sourcePoint" />
            <mxPoint x="140" y="270" as="targetPoint" />
          </mxGeometry>
        </mxCell>
        <mxCell id="5219BZIFk_SN9WuJHqC1-41" value="" style="shape=or;whiteSpace=wrap;html=1;" parent="1" vertex="1">
          <mxGeometry x="450" y="230" width="60" height="80" as="geometry" />
        </mxCell>
        <mxCell id="5219BZIFk_SN9WuJHqC1-42" value="" style="endArrow=none;html=1;rounded=0;" parent="1" edge="1">
          <mxGeometry width="50" height="50" relative="1" as="geometry">
            <mxPoint x="280" y="250" as="sourcePoint" />
            <mxPoint x="280" y="230" as="targetPoint" />
          </mxGeometry>
        </mxCell>
        <mxCell id="5219BZIFk_SN9WuJHqC1-44" value="" style="endArrow=classic;html=1;rounded=0;exitX=0.993;exitY=0.405;exitDx=0;exitDy=0;exitPerimeter=0;entryX=0;entryY=0.75;entryDx=0;entryDy=0;entryPerimeter=0;" parent="1" source="5219BZIFk_SN9WuJHqC1-35" target="5219BZIFk_SN9WuJHqC1-41" edge="1">
          <mxGeometry width="50" height="50" relative="1" as="geometry">
            <mxPoint x="410" y="300" as="sourcePoint" />
            <mxPoint x="440" y="292" as="targetPoint" />
            <Array as="points" />
          </mxGeometry>
        </mxCell>
        <mxCell id="5219BZIFk_SN9WuJHqC1-45" value="" style="endArrow=classic;html=1;rounded=0;entryX=-0.047;entryY=0.12;entryDx=0;entryDy=0;entryPerimeter=0;" parent="1" edge="1">
          <mxGeometry width="50" height="50" relative="1" as="geometry">
            <mxPoint x="280" y="250" as="sourcePoint" />
            <mxPoint x="449.99999999999983" y="249.99999999999991" as="targetPoint" />
          </mxGeometry>
        </mxCell>
        <mxCell id="5219BZIFk_SN9WuJHqC1-47" value="" style="shape=or;whiteSpace=wrap;html=1;" parent="1" vertex="1">
          <mxGeometry x="470" y="10" width="60" height="80" as="geometry" />
        </mxCell>
        <mxCell id="5219BZIFk_SN9WuJHqC1-48" value="" style="endArrow=classic;html=1;rounded=0;entryX=-0.047;entryY=0.35;entryDx=0;entryDy=0;entryPerimeter=0;" parent="1" edge="1">
          <mxGeometry width="50" height="50" relative="1" as="geometry">
            <mxPoint x="22.82" y="40" as="sourcePoint" />
            <mxPoint x="469.99999999999983" y="38.5" as="targetPoint" />
            <Array as="points">
              <mxPoint x="42.82" y="40" />
            </Array>
          </mxGeometry>
        </mxCell>
        <mxCell id="5219BZIFk_SN9WuJHqC1-50" value="" style="endArrow=classic;html=1;rounded=0;" parent="1" edge="1">
          <mxGeometry width="50" height="50" relative="1" as="geometry">
            <mxPoint x="40" y="59" as="sourcePoint" />
            <mxPoint x="200" y="59" as="targetPoint" />
          </mxGeometry>
        </mxCell>
        <mxCell id="5219BZIFk_SN9WuJHqC1-51" value="" style="triangle;whiteSpace=wrap;html=1;" parent="1" vertex="1">
          <mxGeometry x="200" y="40" width="40" height="30" as="geometry" />
        </mxCell>
        <mxCell id="5219BZIFk_SN9WuJHqC1-52" value="" style="ellipse;whiteSpace=wrap;html=1;aspect=fixed;" parent="1" vertex="1">
          <mxGeometry x="240" y="45" width="15" height="15" as="geometry" />
        </mxCell>
        <mxCell id="5219BZIFk_SN9WuJHqC1-53" value="" style="endArrow=classic;html=1;rounded=0;entryX=0;entryY=0.5;entryDx=0;entryDy=0;entryPerimeter=0;exitX=1;exitY=0.5;exitDx=0;exitDy=0;" parent="1" source="5219BZIFk_SN9WuJHqC1-52" edge="1">
          <mxGeometry width="50" height="50" relative="1" as="geometry">
            <mxPoint x="255" y="60" as="sourcePoint" />
            <mxPoint x="470" y="58" as="targetPoint" />
          </mxGeometry>
        </mxCell>
        <mxCell id="5219BZIFk_SN9WuJHqC1-55" value="" style="shape=or;whiteSpace=wrap;html=1;" parent="1" vertex="1">
          <mxGeometry x="590" y="30" width="60" height="70" as="geometry" />
        </mxCell>
        <mxCell id="5219BZIFk_SN9WuJHqC1-57" value="" style="endArrow=none;html=1;rounded=0;" parent="1" edge="1">
          <mxGeometry width="50" height="50" relative="1" as="geometry">
            <mxPoint x="230" y="170" as="sourcePoint" />
            <mxPoint x="560" y="170" as="targetPoint" />
          </mxGeometry>
        </mxCell>
        <mxCell id="5219BZIFk_SN9WuJHqC1-58" value="" style="endArrow=none;html=1;rounded=0;" parent="1" edge="1">
          <mxGeometry width="50" height="50" relative="1" as="geometry">
            <mxPoint x="560" y="170" as="sourcePoint" />
            <mxPoint x="560" y="80" as="targetPoint" />
          </mxGeometry>
        </mxCell>
        <mxCell id="5219BZIFk_SN9WuJHqC1-59" value="" style="endArrow=classic;html=1;rounded=0;" parent="1" edge="1">
          <mxGeometry width="50" height="50" relative="1" as="geometry">
            <mxPoint x="560" y="80" as="sourcePoint" />
            <mxPoint x="590" y="80" as="targetPoint" />
          </mxGeometry>
        </mxCell>
        <mxCell id="5219BZIFk_SN9WuJHqC1-60" value="" style="endArrow=classic;html=1;rounded=0;" parent="1" edge="1">
          <mxGeometry width="50" height="50" relative="1" as="geometry">
            <mxPoint x="530" y="50" as="sourcePoint" />
            <mxPoint x="590" y="50" as="targetPoint" />
          </mxGeometry>
        </mxCell>
        <mxCell id="5219BZIFk_SN9WuJHqC1-61" value="" style="shape=xor;whiteSpace=wrap;html=1;" parent="1" vertex="1">
          <mxGeometry x="590" y="200" width="70" height="80" as="geometry" />
        </mxCell>
        <mxCell id="5219BZIFk_SN9WuJHqC1-62" value="" style="endArrow=classic;html=1;rounded=0;entryX=0.211;entryY=0.645;entryDx=0;entryDy=0;entryPerimeter=0;exitX=1;exitY=0.5;exitDx=0;exitDy=0;exitPerimeter=0;" parent="1" source="5219BZIFk_SN9WuJHqC1-41" target="5219BZIFk_SN9WuJHqC1-61" edge="1">
          <mxGeometry width="50" height="50" relative="1" as="geometry">
            <mxPoint x="498.42" y="270.79" as="sourcePoint" />
            <mxPoint x="579.9999999999999" y="269.2100000000001" as="targetPoint" />
          </mxGeometry>
        </mxCell>
        <mxCell id="5219BZIFk_SN9WuJHqC1-63" value="" style="endArrow=classic;html=1;rounded=0;entryX=0.175;entryY=0.25;entryDx=0;entryDy=0;entryPerimeter=0;" parent="1" target="5219BZIFk_SN9WuJHqC1-61" edge="1">
          <mxGeometry width="50" height="50" relative="1" as="geometry">
            <mxPoint x="402.8" y="211.6" as="sourcePoint" />
            <mxPoint x="579.9999999999998" y="250.00000000000009" as="targetPoint" />
          </mxGeometry>
        </mxCell>
        <mxCell id="5219BZIFk_SN9WuJHqC1-64" value="" style="shape=xor;whiteSpace=wrap;html=1;" parent="1" vertex="1">
          <mxGeometry x="710" y="-30" width="60" height="80" as="geometry" />
        </mxCell>
        <mxCell id="5219BZIFk_SN9WuJHqC1-65" value="" style="endArrow=classic;html=1;rounded=0;entryX=0.173;entryY=0.34;entryDx=0;entryDy=0;entryPerimeter=0;" parent="1" target="5219BZIFk_SN9WuJHqC1-64" edge="1">
          <mxGeometry width="50" height="50" relative="1" as="geometry">
            <mxPoint x="410" y="-5" as="sourcePoint" />
            <mxPoint x="460" y="-55" as="targetPoint" />
          </mxGeometry>
        </mxCell>
        <mxCell id="5219BZIFk_SN9WuJHqC1-66" value="" style="endArrow=classic;html=1;rounded=0;entryX=0.193;entryY=0.63;entryDx=0;entryDy=0;entryPerimeter=0;" parent="1" target="5219BZIFk_SN9WuJHqC1-64" edge="1">
          <mxGeometry width="50" height="50" relative="1" as="geometry">
            <mxPoint x="650" y="60" as="sourcePoint" />
            <mxPoint x="700" y="10" as="targetPoint" />
          </mxGeometry>
        </mxCell>
        <mxCell id="5219BZIFk_SN9WuJHqC1-67" value="" style="shape=xor;whiteSpace=wrap;html=1;" parent="1" vertex="1">
          <mxGeometry x="720" y="110" width="60" height="80" as="geometry" />
        </mxCell>
        <mxCell id="5219BZIFk_SN9WuJHqC1-68" value="" style="endArrow=classic;html=1;rounded=0;entryX=0.187;entryY=0.4;entryDx=0;entryDy=0;entryPerimeter=0;" parent="1" target="5219BZIFk_SN9WuJHqC1-67" edge="1">
          <mxGeometry width="50" height="50" relative="1" as="geometry">
            <mxPoint x="410" y="110" as="sourcePoint" />
            <mxPoint x="460" y="60" as="targetPoint" />
          </mxGeometry>
        </mxCell>
        <mxCell id="5219BZIFk_SN9WuJHqC1-69" value="" style="endArrow=classic;html=1;rounded=0;entryX=0.253;entryY=0.59;entryDx=0;entryDy=0;entryPerimeter=0;" parent="1" target="5219BZIFk_SN9WuJHqC1-67" edge="1">
          <mxGeometry width="50" height="50" relative="1" as="geometry">
            <mxPoint x="660" y="235" as="sourcePoint" />
            <mxPoint x="710" y="185" as="targetPoint" />
          </mxGeometry>
        </mxCell>
      </root>
    </mxGraphModel>
  </diagram>
</mxfile>
